<?xml version="1.0" encoding="utf-8"?>
<!-- Generator: Adobe Illustrator 24.1.2, SVG Export Plug-In . SVG Version: 6.00 Build 0)  -->
<svg version="1.1" id="Layer_1" xmlns="http://www.w3.org/2000/svg" xmlns:xlink="http://www.w3.org/1999/xlink" x="0px" y="0px"
	 viewBox="0 0 1920.2 1075.6" style="enable-background:new 0 0 1920.2 1075.6;" xml:space="preserve">
<style type="text/css">
	.st0{opacity:0.11;fill:url(#Path_195_1_);enable-background:new    ;}
	.st1{fill:url(#Path_194_1_);}
	.st2{fill:url(#SVGID_2_);}
	.st3{clip-path:url(#SVGID_4_);}
	.st4{opacity:0.14;fill:url(#Path_4_1_);stroke:#361CC1;stroke-width:128;enable-background:new    ;}
</style>
<g id="Group_112" transform="translate(0.089 0.042)">
	
		<linearGradient id="Path_195_1_" gradientUnits="userSpaceOnUse" x1="959.911" y1="1075.958" x2="959.911" y2="0.3579" gradientTransform="matrix(1 0 0 -1 8.900000e-02 1075.958)">
		<stop  offset="0" style="stop-color:#666699"/>
		<stop  offset="4.528403e-03" style="stop-color:#666699"/>
		<stop  offset="0.3971" style="stop-color:#4A4A7D"/>
		<stop  offset="0.7419" style="stop-color:#39396C"/>
		<stop  offset="1" style="stop-color:#333366"/>
	</linearGradient>
	<path id="Path_195" class="st0" d="M-0.1,607.4c0,0,100.4,239.9,401.2,191.5s442.1,9.6,537.6,114.9s352.1,94.3,581,52.4
		s363.2,41.8,400.4,109.4L1919.7,0L0,0L-0.1,607.4z"/>
	
		<linearGradient id="Path_194_1_" gradientUnits="userSpaceOnUse" x1="959.9611" y1="1075.958" x2="959.9611" y2="0.358" gradientTransform="matrix(1 0 0 -1 8.900000e-02 1075.958)">
		<stop  offset="0" style="stop-color:#666699"/>
		<stop  offset="4.528403e-03" style="stop-color:#666699"/>
		<stop  offset="0.3971" style="stop-color:#4A4A7D"/>
		<stop  offset="0.7419" style="stop-color:#39396C"/>
		<stop  offset="1" style="stop-color:#333366"/>
	</linearGradient>
	<path id="Path_194" class="st1" d="M0,607.5c0,0,95.3,204.2,401.2,161.1c305.9-43,419.7-32.1,544.2,96.9s344,107.5,572.9,67.1
		s360.2,68.2,401.8,143c0-2.4-0.1-1075.6-0.1-1075.6H0V607.5z"/>
	<g>
		<g>
			
				<linearGradient id="SVGID_2_" gradientUnits="userSpaceOnUse" x1="959.9611" y1="1075.958" x2="959.9611" y2="0.358" gradientTransform="matrix(1 0 0 -1 8.900000e-02 1075.958)">
				<stop  offset="0" style="stop-color:#666699"/>
				<stop  offset="4.528403e-03" style="stop-color:#666699"/>
				<stop  offset="0.3971" style="stop-color:#4A4A7D"/>
				<stop  offset="0.7419" style="stop-color:#39396C"/>
				<stop  offset="1" style="stop-color:#333366"/>
			</linearGradient>
			<path id="SVGID_1_" class="st2" d="M0,607.5c0,0,95.3,204.2,401.2,161.1c305.9-43,419.7-32.1,544.2,96.9s344,107.5,572.9,67.1
				s360.2,68.2,401.8,143c0-2.4-0.1-1075.6-0.1-1075.6H0V607.5z"/>
		</g>
		<g>
			<defs>
				<path id="SVGID_3_" d="M0,607.5c0,0,95.3,204.2,401.2,161.1c305.9-43,419.7-32.1,544.2,96.9s344,107.5,572.9,67.1
					s360.2,68.2,401.8,143c0-2.4-0.1-1075.6-0.1-1075.6H0V607.5z"/>
			</defs>
			<clipPath id="SVGID_4_">
				<use xlink:href="#SVGID_3_"  style="overflow:visible;"/>
			</clipPath>
			<g id="Mask_Group_6" class="st3">
				
					<linearGradient id="Path_4_1_" gradientUnits="userSpaceOnUse" x1="962.311" y1="1107.2579" x2="962.311" y2="388.258" gradientTransform="matrix(1 0 0 -1 8.900000e-02 1075.958)">
					<stop  offset="0" style="stop-color:#666699"/>
					<stop  offset="4.528403e-03" style="stop-color:#666699"/>
					<stop  offset="0.3971" style="stop-color:#4A4A7D"/>
					<stop  offset="0.7419" style="stop-color:#39396C"/>
					<stop  offset="1" style="stop-color:#333366"/>
				</linearGradient>
				<path id="Path_4" class="st4" d="M25.6,687.7c0,0,174.2-392,817.4-255s869.4,77.5,1056.2-464"/>
			</g>
		</g>
	</g>
</g>
</svg>
