<svg xmlns="http://www.w3.org/2000/svg" xmlns:xlink="http://www.w3.org/1999/xlink" id="Layer_1" x="0" y="0" version="1.1" viewBox="0 0 1920.2 1054.9" xml:space="preserve" style="enable-background:new 0 0 1920.2 1054.9"><style type="text/css">.st0{opacity:.11;fill:url(#Path_195_1_);enable-background:new}.st1{fill:url(#Path_194_1_)}</style><g id="Group_111" transform="translate(0.13 -6328.591)"><linearGradient id="Path_195_1_" x1="853.885" x2="1045.884" y1="7282.205" y2="6510.777" gradientUnits="userSpaceOnUse"><stop offset="0" style="stop-color:#94e2ff"/><stop offset=".03" style="stop-color:#73d5f5"/><stop offset=".096" style="stop-color:#20b5dd"/><stop offset=".12" style="stop-color:#00a8d4"/><stop offset=".14" style="stop-color:#0fa6d8"/><stop offset=".177" style="stop-color:#36a1e3"/><stop offset=".229" style="stop-color:#7699f5"/><stop offset=".255" style="stop-color:#9994ff"/><stop offset=".274" style="stop-color:#8a86e9"/><stop offset=".321" style="stop-color:#6964b7"/><stop offset=".366" style="stop-color:#4e4a90"/><stop offset=".407" style="stop-color:#3b3773"/><stop offset=".443" style="stop-color:#2f2b62"/><stop offset=".469" style="stop-color:#2b275c"/><stop offset=".57" style="stop-color:#1a1837"/><stop offset=".672" style="stop-color:#0c0b19"/><stop offset=".759" style="stop-color:#030307"/><stop offset=".821" style="stop-color:#000"/></linearGradient><path id="Path_195" d="M1920.1,7003.8c0,0-85.9-337.8-386.7-270.2c-300.8,67.5-439.4,0-538.3-145.2 s-352-127-574.6-79.2s-302.4-21.5-420.6-180.6L0,7383.5h1920L1920.1,7003.8z" class="st0"/><linearGradient id="Path_194_1_" x1="854.026" x2="1046.026" y1="7282.24" y2="6510.812" gradientUnits="userSpaceOnUse"><stop offset="0" style="stop-color:#94e2ff"/><stop offset=".03" style="stop-color:#73d5f5"/><stop offset=".096" style="stop-color:#20b5dd"/><stop offset=".12" style="stop-color:#00a8d4"/><stop offset=".14" style="stop-color:#0fa6d8"/><stop offset=".177" style="stop-color:#36a1e3"/><stop offset=".229" style="stop-color:#7699f5"/><stop offset=".255" style="stop-color:#9994ff"/><stop offset=".274" style="stop-color:#8a86e9"/><stop offset=".321" style="stop-color:#6964b7"/><stop offset=".366" style="stop-color:#4e4a90"/><stop offset=".407" style="stop-color:#3b3773"/><stop offset=".443" style="stop-color:#2f2b62"/><stop offset=".469" style="stop-color:#2b275c"/><stop offset=".57" style="stop-color:#1a1837"/><stop offset=".672" style="stop-color:#0c0b19"/><stop offset=".759" style="stop-color:#030307"/><stop offset=".821" style="stop-color:#000"/></linearGradient><path id="Path_194" d="M1920,7003.9c0,0-86.3-291.5-385.9-226.4s-437.7,0-536.1-139.9 c-98.5-139.9-348.5-144.6-576.5-88.3c-228,56.3-380-116.5-421.4-220.6c0.1,8,0,1054.7,0,1054.7h1920L1920,7003.9z" class="st1"/></g></svg>